ISO-10303-21;
HEADER;
/* Generated by software containing ST-Developer
 * from STEP Tools, Inc. (www.steptools.com) 
 */

FILE_DESCRIPTION(
/* description */ (''),
/* implementation_level */ '2;1');

FILE_NAME(
/* name */ 'hackpad_frame.step',
/* time_stamp */ '2026-03-29T17:46:12+05:30',
/* author */ (''),
/* organization */ (''),
/* preprocessor_version */ 'ST-DEVELOPER v20.1',
/* originating_system */ 'Autodesk Translation Framework v14.24.0.0',
/* authorisation */ '');

FILE_SCHEMA (('AUTOMOTIVE_DESIGN { 1 0 10303 214 3 1 1 }'));
ENDSEC;

DATA;
#10=MECHANICAL_DESIGN_GEOMETRIC_PRESENTATION_REPRESENTATION('',(#13),#471);
#11=SHAPE_REPRESENTATION_RELATIONSHIP('SRR','None',#478,#12);
#12=ADVANCED_BREP_SHAPE_REPRESENTATION('',(#14),#470);
#13=STYLED_ITEM('',(#487),#14);
#14=MANIFOLD_SOLID_BREP('Body1',#283);
#15=CYLINDRICAL_SURFACE('',#308,1.45);
#16=CYLINDRICAL_SURFACE('',#310,1.45);
#17=CYLINDRICAL_SURFACE('',#312,1.45);
#18=CYLINDRICAL_SURFACE('',#314,1.45);
#19=FACE_BOUND('',#51,.T.);
#20=FACE_BOUND('',#52,.T.);
#21=FACE_BOUND('',#53,.T.);
#22=FACE_BOUND('',#54,.T.);
#23=FACE_BOUND('',#67,.T.);
#24=FACE_BOUND('',#68,.T.);
#25=FACE_BOUND('',#69,.T.);
#26=FACE_BOUND('',#70,.T.);
#27=CIRCLE('',#299,1.45);
#28=CIRCLE('',#300,1.45);
#29=CIRCLE('',#301,1.45);
#30=CIRCLE('',#302,1.45);
#31=CIRCLE('',#309,1.45);
#32=CIRCLE('',#311,1.45);
#33=CIRCLE('',#313,1.45);
#34=CIRCLE('',#315,1.45);
#35=FACE_OUTER_BOUND('',#49,.T.);
#36=FACE_OUTER_BOUND('',#50,.T.);
#37=FACE_OUTER_BOUND('',#55,.T.);
#38=FACE_OUTER_BOUND('',#56,.T.);
#39=FACE_OUTER_BOUND('',#57,.T.);
#40=FACE_OUTER_BOUND('',#58,.T.);
#41=FACE_OUTER_BOUND('',#59,.T.);
#42=FACE_OUTER_BOUND('',#60,.T.);
#43=FACE_OUTER_BOUND('',#61,.T.);
#44=FACE_OUTER_BOUND('',#62,.T.);
#45=FACE_OUTER_BOUND('',#63,.T.);
#46=FACE_OUTER_BOUND('',#64,.T.);
#47=FACE_OUTER_BOUND('',#65,.T.);
#48=FACE_OUTER_BOUND('',#66,.T.);
#49=EDGE_LOOP('',(#187,#188,#189,#190,#191,#192,#193,#194));
#50=EDGE_LOOP('',(#195,#196,#197,#198,#199,#200,#201,#202));
#51=EDGE_LOOP('',(#203));
#52=EDGE_LOOP('',(#204));
#53=EDGE_LOOP('',(#205));
#54=EDGE_LOOP('',(#206));
#55=EDGE_LOOP('',(#207,#208,#209,#210));
#56=EDGE_LOOP('',(#211,#212,#213,#214));
#57=EDGE_LOOP('',(#215,#216,#217,#218));
#58=EDGE_LOOP('',(#219,#220,#221,#222));
#59=EDGE_LOOP('',(#223,#224,#225,#226));
#60=EDGE_LOOP('',(#227,#228,#229,#230));
#61=EDGE_LOOP('',(#231,#232,#233,#234));
#62=EDGE_LOOP('',(#235,#236,#237,#238));
#63=EDGE_LOOP('',(#239,#240,#241,#242));
#64=EDGE_LOOP('',(#243,#244,#245,#246));
#65=EDGE_LOOP('',(#247,#248,#249,#250));
#66=EDGE_LOOP('',(#251,#252,#253,#254));
#67=EDGE_LOOP('',(#255));
#68=EDGE_LOOP('',(#256));
#69=EDGE_LOOP('',(#257));
#70=EDGE_LOOP('',(#258));
#71=LINE('',#397,#99);
#72=LINE('',#399,#100);
#73=LINE('',#401,#101);
#74=LINE('',#403,#102);
#75=LINE('',#405,#103);
#76=LINE('',#407,#104);
#77=LINE('',#409,#105);
#78=LINE('',#410,#106);
#79=LINE('',#413,#107);
#80=LINE('',#415,#108);
#81=LINE('',#416,#109);
#82=LINE('',#418,#110);
#83=LINE('',#420,#111);
#84=LINE('',#421,#112);
#85=LINE('',#432,#113);
#86=LINE('',#433,#114);
#87=LINE('',#436,#115);
#88=LINE('',#437,#116);
#89=LINE('',#440,#117);
#90=LINE('',#441,#118);
#91=LINE('',#443,#119);
#92=LINE('',#447,#120);
#93=LINE('',#451,#121);
#94=LINE('',#455,#122);
#95=LINE('',#459,#123);
#96=LINE('',#463,#124);
#97=LINE('',#464,#125);
#98=LINE('',#466,#126);
#99=VECTOR('',#323,10.);
#100=VECTOR('',#324,10.);
#101=VECTOR('',#325,10.);
#102=VECTOR('',#326,10.);
#103=VECTOR('',#327,10.);
#104=VECTOR('',#328,10.);
#105=VECTOR('',#329,10.);
#106=VECTOR('',#330,10.);
#107=VECTOR('',#333,10.);
#108=VECTOR('',#334,10.);
#109=VECTOR('',#335,10.);
#110=VECTOR('',#336,10.);
#111=VECTOR('',#337,10.);
#112=VECTOR('',#338,10.);
#113=VECTOR('',#349,10.);
#114=VECTOR('',#350,10.);
#115=VECTOR('',#353,10.);
#116=VECTOR('',#354,10.);
#117=VECTOR('',#357,10.);
#118=VECTOR('',#358,10.);
#119=VECTOR('',#361,10.);
#120=VECTOR('',#366,1.45);
#121=VECTOR('',#371,1.45);
#122=VECTOR('',#376,1.45);
#123=VECTOR('',#381,1.45);
#124=VECTOR('',#386,10.);
#125=VECTOR('',#387,10.);
#126=VECTOR('',#390,10.);
#127=VERTEX_POINT('',#395);
#128=VERTEX_POINT('',#396);
#129=VERTEX_POINT('',#398);
#130=VERTEX_POINT('',#400);
#131=VERTEX_POINT('',#402);
#132=VERTEX_POINT('',#404);
#133=VERTEX_POINT('',#406);
#134=VERTEX_POINT('',#408);
#135=VERTEX_POINT('',#412);
#136=VERTEX_POINT('',#414);
#137=VERTEX_POINT('',#417);
#138=VERTEX_POINT('',#419);
#139=VERTEX_POINT('',#422);
#140=VERTEX_POINT('',#424);
#141=VERTEX_POINT('',#426);
#142=VERTEX_POINT('',#428);
#143=VERTEX_POINT('',#431);
#144=VERTEX_POINT('',#435);
#145=VERTEX_POINT('',#439);
#146=VERTEX_POINT('',#446);
#147=VERTEX_POINT('',#450);
#148=VERTEX_POINT('',#454);
#149=VERTEX_POINT('',#458);
#150=VERTEX_POINT('',#462);
#151=EDGE_CURVE('',#127,#128,#71,.T.);
#152=EDGE_CURVE('',#128,#129,#72,.T.);
#153=EDGE_CURVE('',#130,#129,#73,.T.);
#154=EDGE_CURVE('',#130,#131,#74,.T.);
#155=EDGE_CURVE('',#131,#132,#75,.T.);
#156=EDGE_CURVE('',#132,#133,#76,.T.);
#157=EDGE_CURVE('',#133,#134,#77,.T.);
#158=EDGE_CURVE('',#134,#127,#78,.T.);
#159=EDGE_CURVE('',#128,#135,#79,.T.);
#160=EDGE_CURVE('',#136,#135,#80,.T.);
#161=EDGE_CURVE('',#133,#136,#81,.T.);
#162=EDGE_CURVE('',#137,#132,#82,.T.);
#163=EDGE_CURVE('',#138,#137,#83,.T.);
#164=EDGE_CURVE('',#129,#138,#84,.T.);
#165=EDGE_CURVE('',#139,#139,#27,.T.);
#166=EDGE_CURVE('',#140,#140,#28,.T.);
#167=EDGE_CURVE('',#141,#141,#29,.T.);
#168=EDGE_CURVE('',#142,#142,#30,.T.);
#169=EDGE_CURVE('',#136,#143,#85,.T.);
#170=EDGE_CURVE('',#134,#143,#86,.T.);
#171=EDGE_CURVE('',#135,#144,#87,.T.);
#172=EDGE_CURVE('',#144,#143,#88,.T.);
#173=EDGE_CURVE('',#131,#145,#89,.T.);
#174=EDGE_CURVE('',#145,#137,#90,.T.);
#175=EDGE_CURVE('',#127,#144,#91,.T.);
#176=EDGE_CURVE('',#142,#146,#92,.T.);
#177=EDGE_CURVE('',#146,#146,#31,.T.);
#178=EDGE_CURVE('',#141,#147,#93,.T.);
#179=EDGE_CURVE('',#147,#147,#32,.T.);
#180=EDGE_CURVE('',#140,#148,#94,.T.);
#181=EDGE_CURVE('',#148,#148,#33,.T.);
#182=EDGE_CURVE('',#139,#149,#95,.T.);
#183=EDGE_CURVE('',#149,#149,#34,.T.);
#184=EDGE_CURVE('',#150,#138,#96,.T.);
#185=EDGE_CURVE('',#150,#130,#97,.T.);
#186=EDGE_CURVE('',#145,#150,#98,.T.);
#187=ORIENTED_EDGE('',*,*,#151,.T.);
#188=ORIENTED_EDGE('',*,*,#152,.T.);
#189=ORIENTED_EDGE('',*,*,#153,.F.);
#190=ORIENTED_EDGE('',*,*,#154,.T.);
#191=ORIENTED_EDGE('',*,*,#155,.T.);
#192=ORIENTED_EDGE('',*,*,#156,.T.);
#193=ORIENTED_EDGE('',*,*,#157,.T.);
#194=ORIENTED_EDGE('',*,*,#158,.T.);
#195=ORIENTED_EDGE('',*,*,#159,.T.);
#196=ORIENTED_EDGE('',*,*,#160,.F.);
#197=ORIENTED_EDGE('',*,*,#161,.F.);
#198=ORIENTED_EDGE('',*,*,#156,.F.);
#199=ORIENTED_EDGE('',*,*,#162,.F.);
#200=ORIENTED_EDGE('',*,*,#163,.F.);
#201=ORIENTED_EDGE('',*,*,#164,.F.);
#202=ORIENTED_EDGE('',*,*,#152,.F.);
#203=ORIENTED_EDGE('',*,*,#165,.F.);
#204=ORIENTED_EDGE('',*,*,#166,.F.);
#205=ORIENTED_EDGE('',*,*,#167,.F.);
#206=ORIENTED_EDGE('',*,*,#168,.F.);
#207=ORIENTED_EDGE('',*,*,#161,.T.);
#208=ORIENTED_EDGE('',*,*,#169,.T.);
#209=ORIENTED_EDGE('',*,*,#170,.F.);
#210=ORIENTED_EDGE('',*,*,#157,.F.);
#211=ORIENTED_EDGE('',*,*,#160,.T.);
#212=ORIENTED_EDGE('',*,*,#171,.T.);
#213=ORIENTED_EDGE('',*,*,#172,.T.);
#214=ORIENTED_EDGE('',*,*,#169,.F.);
#215=ORIENTED_EDGE('',*,*,#162,.T.);
#216=ORIENTED_EDGE('',*,*,#155,.F.);
#217=ORIENTED_EDGE('',*,*,#173,.T.);
#218=ORIENTED_EDGE('',*,*,#174,.T.);
#219=ORIENTED_EDGE('',*,*,#159,.F.);
#220=ORIENTED_EDGE('',*,*,#151,.F.);
#221=ORIENTED_EDGE('',*,*,#175,.T.);
#222=ORIENTED_EDGE('',*,*,#171,.F.);
#223=ORIENTED_EDGE('',*,*,#170,.T.);
#224=ORIENTED_EDGE('',*,*,#172,.F.);
#225=ORIENTED_EDGE('',*,*,#175,.F.);
#226=ORIENTED_EDGE('',*,*,#158,.F.);
#227=ORIENTED_EDGE('',*,*,#168,.T.);
#228=ORIENTED_EDGE('',*,*,#176,.T.);
#229=ORIENTED_EDGE('',*,*,#177,.T.);
#230=ORIENTED_EDGE('',*,*,#176,.F.);
#231=ORIENTED_EDGE('',*,*,#167,.T.);
#232=ORIENTED_EDGE('',*,*,#178,.T.);
#233=ORIENTED_EDGE('',*,*,#179,.T.);
#234=ORIENTED_EDGE('',*,*,#178,.F.);
#235=ORIENTED_EDGE('',*,*,#166,.T.);
#236=ORIENTED_EDGE('',*,*,#180,.T.);
#237=ORIENTED_EDGE('',*,*,#181,.T.);
#238=ORIENTED_EDGE('',*,*,#180,.F.);
#239=ORIENTED_EDGE('',*,*,#165,.T.);
#240=ORIENTED_EDGE('',*,*,#182,.T.);
#241=ORIENTED_EDGE('',*,*,#183,.T.);
#242=ORIENTED_EDGE('',*,*,#182,.F.);
#243=ORIENTED_EDGE('',*,*,#164,.T.);
#244=ORIENTED_EDGE('',*,*,#184,.F.);
#245=ORIENTED_EDGE('',*,*,#185,.T.);
#246=ORIENTED_EDGE('',*,*,#153,.T.);
#247=ORIENTED_EDGE('',*,*,#163,.T.);
#248=ORIENTED_EDGE('',*,*,#174,.F.);
#249=ORIENTED_EDGE('',*,*,#186,.T.);
#250=ORIENTED_EDGE('',*,*,#184,.T.);
#251=ORIENTED_EDGE('',*,*,#154,.F.);
#252=ORIENTED_EDGE('',*,*,#185,.F.);
#253=ORIENTED_EDGE('',*,*,#186,.F.);
#254=ORIENTED_EDGE('',*,*,#173,.F.);
#255=ORIENTED_EDGE('',*,*,#183,.F.);
#256=ORIENTED_EDGE('',*,*,#181,.F.);
#257=ORIENTED_EDGE('',*,*,#179,.F.);
#258=ORIENTED_EDGE('',*,*,#177,.F.);
#259=PLANE('',#297);
#260=PLANE('',#298);
#261=PLANE('',#303);
#262=PLANE('',#304);
#263=PLANE('',#305);
#264=PLANE('',#306);
#265=PLANE('',#307);
#266=PLANE('',#316);
#267=PLANE('',#317);
#268=PLANE('',#318);
#269=ADVANCED_FACE('',(#35),#259,.T.);
#270=ADVANCED_FACE('',(#36,#19,#20,#21,#22),#260,.T.);
#271=ADVANCED_FACE('',(#37),#261,.F.);
#272=ADVANCED_FACE('',(#38),#262,.F.);
#273=ADVANCED_FACE('',(#39),#263,.T.);
#274=ADVANCED_FACE('',(#40),#264,.F.);
#275=ADVANCED_FACE('',(#41),#265,.F.);
#276=ADVANCED_FACE('',(#42),#15,.F.);
#277=ADVANCED_FACE('',(#43),#16,.F.);
#278=ADVANCED_FACE('',(#44),#17,.F.);
#279=ADVANCED_FACE('',(#45),#18,.F.);
#280=ADVANCED_FACE('',(#46),#266,.T.);
#281=ADVANCED_FACE('',(#47),#267,.T.);
#282=ADVANCED_FACE('',(#48,#23,#24,#25,#26),#268,.F.);
#283=CLOSED_SHELL('',(#269,#270,#271,#272,#273,#274,#275,#276,#277,#278,
#279,#280,#281,#282));
#284=DERIVED_UNIT_ELEMENT(#286,1.);
#285=DERIVED_UNIT_ELEMENT(#473,-3.);
#286=(
MASS_UNIT()
NAMED_UNIT(*)
SI_UNIT(.KILO.,.GRAM.)
);
#287=DERIVED_UNIT((#284,#285));
#288=MEASURE_REPRESENTATION_ITEM('density measure',
POSITIVE_RATIO_MEASURE(7850.),#287);
#289=PROPERTY_DEFINITION_REPRESENTATION(#294,#291);
#290=PROPERTY_DEFINITION_REPRESENTATION(#295,#292);
#291=REPRESENTATION('material name',(#293),#470);
#292=REPRESENTATION('density',(#288),#470);
#293=DESCRIPTIVE_REPRESENTATION_ITEM('Steel','Steel');
#294=PROPERTY_DEFINITION('material property','material name',#480);
#295=PROPERTY_DEFINITION('material property','density of part',#480);
#296=AXIS2_PLACEMENT_3D('',#393,#319,#320);
#297=AXIS2_PLACEMENT_3D('',#394,#321,#322);
#298=AXIS2_PLACEMENT_3D('',#411,#331,#332);
#299=AXIS2_PLACEMENT_3D('',#423,#339,#340);
#300=AXIS2_PLACEMENT_3D('',#425,#341,#342);
#301=AXIS2_PLACEMENT_3D('',#427,#343,#344);
#302=AXIS2_PLACEMENT_3D('',#429,#345,#346);
#303=AXIS2_PLACEMENT_3D('',#430,#347,#348);
#304=AXIS2_PLACEMENT_3D('',#434,#351,#352);
#305=AXIS2_PLACEMENT_3D('',#438,#355,#356);
#306=AXIS2_PLACEMENT_3D('',#442,#359,#360);
#307=AXIS2_PLACEMENT_3D('',#444,#362,#363);
#308=AXIS2_PLACEMENT_3D('',#445,#364,#365);
#309=AXIS2_PLACEMENT_3D('',#448,#367,#368);
#310=AXIS2_PLACEMENT_3D('',#449,#369,#370);
#311=AXIS2_PLACEMENT_3D('',#452,#372,#373);
#312=AXIS2_PLACEMENT_3D('',#453,#374,#375);
#313=AXIS2_PLACEMENT_3D('',#456,#377,#378);
#314=AXIS2_PLACEMENT_3D('',#457,#379,#380);
#315=AXIS2_PLACEMENT_3D('',#460,#382,#383);
#316=AXIS2_PLACEMENT_3D('',#461,#384,#385);
#317=AXIS2_PLACEMENT_3D('',#465,#388,#389);
#318=AXIS2_PLACEMENT_3D('',#467,#391,#392);
#319=DIRECTION('axis',(0.,0.,1.));
#320=DIRECTION('refdir',(1.,0.,0.));
#321=DIRECTION('center_axis',(-1.,0.,0.));
#322=DIRECTION('ref_axis',(0.,-1.,0.));
#323=DIRECTION('',(0.,0.,1.));
#324=DIRECTION('',(0.,1.,0.));
#325=DIRECTION('',(0.,0.,1.));
#326=DIRECTION('',(0.,-1.,0.));
#327=DIRECTION('',(0.,0.,1.));
#328=DIRECTION('',(0.,1.,0.));
#329=DIRECTION('',(0.,0.,-1.));
#330=DIRECTION('',(0.,1.,0.));
#331=DIRECTION('center_axis',(0.,0.,1.));
#332=DIRECTION('ref_axis',(1.,0.,0.));
#333=DIRECTION('',(1.,0.,0.));
#334=DIRECTION('',(0.,1.,0.));
#335=DIRECTION('',(1.,0.,0.));
#336=DIRECTION('',(-1.,0.,0.));
#337=DIRECTION('',(-1.02632126149772E-16,-1.,0.));
#338=DIRECTION('',(1.,0.,0.));
#339=DIRECTION('center_axis',(0.,0.,1.));
#340=DIRECTION('ref_axis',(1.,0.,0.));
#341=DIRECTION('center_axis',(0.,0.,1.));
#342=DIRECTION('ref_axis',(1.,0.,0.));
#343=DIRECTION('center_axis',(0.,0.,1.));
#344=DIRECTION('ref_axis',(1.,0.,0.));
#345=DIRECTION('center_axis',(0.,0.,1.));
#346=DIRECTION('ref_axis',(1.,0.,0.));
#347=DIRECTION('center_axis',(0.,-1.,0.));
#348=DIRECTION('ref_axis',(-1.,0.,0.));
#349=DIRECTION('',(0.,0.,-1.));
#350=DIRECTION('',(1.,0.,0.));
#351=DIRECTION('center_axis',(1.,0.,0.));
#352=DIRECTION('ref_axis',(0.,-1.,0.));
#353=DIRECTION('',(0.,0.,-1.));
#354=DIRECTION('',(0.,-1.,0.));
#355=DIRECTION('center_axis',(0.,-1.,0.));
#356=DIRECTION('ref_axis',(1.,0.,0.));
#357=DIRECTION('',(1.,0.,0.));
#358=DIRECTION('',(0.,0.,1.));
#359=DIRECTION('center_axis',(0.,1.,0.));
#360=DIRECTION('ref_axis',(1.,0.,0.));
#361=DIRECTION('',(1.,0.,0.));
#362=DIRECTION('center_axis',(0.,0.,-1.));
#363=DIRECTION('ref_axis',(-1.,0.,0.));
#364=DIRECTION('center_axis',(0.,0.,1.));
#365=DIRECTION('ref_axis',(1.,0.,0.));
#366=DIRECTION('',(0.,0.,-1.));
#367=DIRECTION('center_axis',(0.,0.,-1.));
#368=DIRECTION('ref_axis',(1.,0.,0.));
#369=DIRECTION('center_axis',(0.,0.,1.));
#370=DIRECTION('ref_axis',(1.,0.,0.));
#371=DIRECTION('',(0.,0.,-1.));
#372=DIRECTION('center_axis',(0.,0.,-1.));
#373=DIRECTION('ref_axis',(1.,0.,0.));
#374=DIRECTION('center_axis',(0.,0.,1.));
#375=DIRECTION('ref_axis',(1.,0.,0.));
#376=DIRECTION('',(0.,0.,-1.));
#377=DIRECTION('center_axis',(0.,0.,-1.));
#378=DIRECTION('ref_axis',(1.,0.,0.));
#379=DIRECTION('center_axis',(0.,0.,1.));
#380=DIRECTION('ref_axis',(1.,0.,0.));
#381=DIRECTION('',(0.,0.,-1.));
#382=DIRECTION('center_axis',(0.,0.,-1.));
#383=DIRECTION('ref_axis',(1.,0.,0.));
#384=DIRECTION('center_axis',(0.,1.,0.));
#385=DIRECTION('ref_axis',(-1.,0.,0.));
#386=DIRECTION('',(0.,0.,1.));
#387=DIRECTION('',(-1.,0.,0.));
#388=DIRECTION('center_axis',(1.,-1.02632126149772E-16,0.));
#389=DIRECTION('ref_axis',(1.02632126149772E-16,1.,0.));
#390=DIRECTION('',(1.02632126149772E-16,1.,0.));
#391=DIRECTION('center_axis',(0.,0.,1.));
#392=DIRECTION('ref_axis',(1.,0.,0.));
#393=CARTESIAN_POINT('',(0.,0.,0.));
#394=CARTESIAN_POINT('Origin',(-60.,76.7238722228874,0.));
#395=CARTESIAN_POINT('',(-60.,66.7238722228874,3.));
#396=CARTESIAN_POINT('',(-60.,66.7238722228874,8.));
#397=CARTESIAN_POINT('',(-60.,66.7238722228874,3.25));
#398=CARTESIAN_POINT('',(-60.,76.7238722228874,8.));
#399=CARTESIAN_POINT('',(-60.,55.0888722228874,8.));
#400=CARTESIAN_POINT('',(-60.,76.7238722228874,0.));
#401=CARTESIAN_POINT('',(-60.,76.7238722228874,0.));
#402=CARTESIAN_POINT('',(-60.,-9.81612777711262,0.));
#403=CARTESIAN_POINT('',(-60.,76.7238722228874,0.));
#404=CARTESIAN_POINT('',(-60.,-9.81612777711262,8.));
#405=CARTESIAN_POINT('',(-60.,-9.81612777711262,0.));
#406=CARTESIAN_POINT('',(-60.,0.183872222887382,8.));
#407=CARTESIAN_POINT('',(-60.,55.0888722228874,8.));
#408=CARTESIAN_POINT('',(-60.,0.183872222887382,3.));
#409=CARTESIAN_POINT('',(-60.,0.183872222887382,3.25));
#410=CARTESIAN_POINT('',(-60.,38.4538722228874,3.));
#411=CARTESIAN_POINT('Origin',(-1.37,33.4538722228874,8.));
#412=CARTESIAN_POINT('',(47.26,66.7238722228874,8.));
#413=CARTESIAN_POINT('',(-30.685,66.7238722228874,8.));
#414=CARTESIAN_POINT('',(47.26,0.183872222887382,8.));
#415=CARTESIAN_POINT('',(47.26,50.0888722228874,8.));
#416=CARTESIAN_POINT('',(22.945,0.183872222887382,8.));
#417=CARTESIAN_POINT('',(57.26,-9.81612777711263,8.));
#418=CARTESIAN_POINT('',(-30.685,-9.81612777711263,8.));
#419=CARTESIAN_POINT('',(57.26,76.7238722228874,8.));
#420=CARTESIAN_POINT('',(57.26,11.8188722228874,8.));
#421=CARTESIAN_POINT('',(27.945,76.7238722228874,8.));
#422=CARTESIAN_POINT('',(50.8104562324253,-4.81601419042688,8.));
#423=CARTESIAN_POINT('Origin',(52.2604562324253,-4.81601419042688,8.));
#424=CARTESIAN_POINT('',(-56.4495437675746,-4.81601419042688,8.));
#425=CARTESIAN_POINT('Origin',(-54.9995437675747,-4.81601419042688,8.));
#426=CARTESIAN_POINT('',(-56.4495437675746,71.7239858095731,8.));
#427=CARTESIAN_POINT('Origin',(-54.9995437675747,71.7239858095731,8.));
#428=CARTESIAN_POINT('',(50.8104562324253,71.7239858095731,8.));
#429=CARTESIAN_POINT('Origin',(52.2604562324253,71.7239858095731,8.));
#430=CARTESIAN_POINT('Origin',(47.26,0.183872222887382,13.));
#431=CARTESIAN_POINT('',(47.26,0.183872222887382,3.));
#432=CARTESIAN_POINT('',(47.26,0.183872222887382,13.));
#433=CARTESIAN_POINT('',(-60.,0.183872222887382,3.));
#434=CARTESIAN_POINT('Origin',(47.26,66.7238722228874,13.));
#435=CARTESIAN_POINT('',(47.26,66.7238722228874,3.));
#436=CARTESIAN_POINT('',(47.26,66.7238722228874,13.));
#437=CARTESIAN_POINT('',(47.26,66.7238722228874,3.));
#438=CARTESIAN_POINT('Origin',(-60.,-9.81612777711262,0.));
#439=CARTESIAN_POINT('',(57.26,-9.81612777711262,0.));
#440=CARTESIAN_POINT('',(-60.,-9.81612777711262,0.));
#441=CARTESIAN_POINT('',(57.26,-9.81612777711262,0.));
#442=CARTESIAN_POINT('Origin',(-50.,66.7238722228874,13.));
#443=CARTESIAN_POINT('',(-50.,66.7238722228874,3.));
#444=CARTESIAN_POINT('Origin',(-1.37,33.4538722228874,3.));
#445=CARTESIAN_POINT('Origin',(52.2604562324253,71.7239858095731,0.));
#446=CARTESIAN_POINT('',(50.8104562324253,71.7239858095731,0.));
#447=CARTESIAN_POINT('',(50.8104562324253,71.7239858095731,0.));
#448=CARTESIAN_POINT('Origin',(52.2604562324253,71.7239858095731,0.));
#449=CARTESIAN_POINT('Origin',(-54.9995437675747,71.7239858095731,0.));
#450=CARTESIAN_POINT('',(-56.4495437675747,71.7239858095731,0.));
#451=CARTESIAN_POINT('',(-56.4495437675747,71.7239858095731,0.));
#452=CARTESIAN_POINT('Origin',(-54.9995437675747,71.7239858095731,0.));
#453=CARTESIAN_POINT('Origin',(-54.9995437675747,-4.81601419042688,0.));
#454=CARTESIAN_POINT('',(-56.4495437675747,-4.81601419042688,0.));
#455=CARTESIAN_POINT('',(-56.4495437675747,-4.81601419042688,0.));
#456=CARTESIAN_POINT('Origin',(-54.9995437675747,-4.81601419042688,0.));
#457=CARTESIAN_POINT('Origin',(52.2604562324253,-4.81601419042688,0.));
#458=CARTESIAN_POINT('',(50.8104562324253,-4.81601419042688,0.));
#459=CARTESIAN_POINT('',(50.8104562324253,-4.81601419042688,0.));
#460=CARTESIAN_POINT('Origin',(52.2604562324253,-4.81601419042688,0.));
#461=CARTESIAN_POINT('Origin',(57.26,76.7238722228874,0.));
#462=CARTESIAN_POINT('',(57.26,76.7238722228874,0.));
#463=CARTESIAN_POINT('',(57.26,76.7238722228874,0.));
#464=CARTESIAN_POINT('',(57.26,76.7238722228874,0.));
#465=CARTESIAN_POINT('Origin',(57.26,-9.81612777711262,0.));
#466=CARTESIAN_POINT('',(57.26,-9.81612777711262,0.));
#467=CARTESIAN_POINT('Origin',(-1.37,33.4538722228874,0.));
#468=UNCERTAINTY_MEASURE_WITH_UNIT(LENGTH_MEASURE(0.01),#472,
'DISTANCE_ACCURACY_VALUE',
'Maximum model space distance between geometric entities at asserted c
onnectivities');
#469=UNCERTAINTY_MEASURE_WITH_UNIT(LENGTH_MEASURE(0.01),#472,
'DISTANCE_ACCURACY_VALUE',
'Maximum model space distance between geometric entities at asserted c
onnectivities');
#470=(
GEOMETRIC_REPRESENTATION_CONTEXT(3)
GLOBAL_UNCERTAINTY_ASSIGNED_CONTEXT((#468))
GLOBAL_UNIT_ASSIGNED_CONTEXT((#472,#474,#475))
REPRESENTATION_CONTEXT('','3D')
);
#471=(
GEOMETRIC_REPRESENTATION_CONTEXT(3)
GLOBAL_UNCERTAINTY_ASSIGNED_CONTEXT((#469))
GLOBAL_UNIT_ASSIGNED_CONTEXT((#472,#474,#475))
REPRESENTATION_CONTEXT('','3D')
);
#472=(
LENGTH_UNIT()
NAMED_UNIT(*)
SI_UNIT(.MILLI.,.METRE.)
);
#473=(
LENGTH_UNIT()
NAMED_UNIT(*)
SI_UNIT($,.METRE.)
);
#474=(
NAMED_UNIT(*)
PLANE_ANGLE_UNIT()
SI_UNIT($,.RADIAN.)
);
#475=(
NAMED_UNIT(*)
SI_UNIT($,.STERADIAN.)
SOLID_ANGLE_UNIT()
);
#476=SHAPE_DEFINITION_REPRESENTATION(#477,#478);
#477=PRODUCT_DEFINITION_SHAPE('',$,#480);
#478=SHAPE_REPRESENTATION('',(#296),#470);
#479=PRODUCT_DEFINITION_CONTEXT('part definition',#484,'design');
#480=PRODUCT_DEFINITION('hackpad_new','hackpad_new v6',#481,#479);
#481=PRODUCT_DEFINITION_FORMATION('',$,#486);
#482=PRODUCT_RELATED_PRODUCT_CATEGORY('hackpad_new v6','hackpad_new v6',
(#486));
#483=APPLICATION_PROTOCOL_DEFINITION('international standard',
'automotive_design',2009,#484);
#484=APPLICATION_CONTEXT(
'Core Data for Automotive Mechanical Design Process');
#485=PRODUCT_CONTEXT('part definition',#484,'mechanical');
#486=PRODUCT('hackpad_new','hackpad_new v6',$,(#485));
#487=PRESENTATION_STYLE_ASSIGNMENT((#488));
#488=SURFACE_STYLE_USAGE(.BOTH.,#489);
#489=SURFACE_SIDE_STYLE('',(#490));
#490=SURFACE_STYLE_FILL_AREA(#491);
#491=FILL_AREA_STYLE('Steel - Satin',(#492));
#492=FILL_AREA_STYLE_COLOUR('Steel - Satin',#493);
#493=COLOUR_RGB('Steel - Satin',0.627450980392157,0.627450980392157,0.627450980392157);
ENDSEC;
END-ISO-10303-21;
