ISO-10303-21;
HEADER;
/* Generated by software containing ST-Developer
 * from STEP Tools, Inc. (www.steptools.com) 
 */

FILE_DESCRIPTION(
/* description */ (''),
/* implementation_level */ '2;1');

FILE_NAME(
/* name */ 'hackpad_frame_preview(with a blank rectangle).step',
/* time_stamp */ '2026-03-29T17:51:03+05:30',
/* author */ (''),
/* organization */ (''),
/* preprocessor_version */ 'ST-DEVELOPER v20.1',
/* originating_system */ 'Autodesk Translation Framework v14.24.0.0',
/* authorisation */ '');

FILE_SCHEMA (('AUTOMOTIVE_DESIGN { 1 0 10303 214 3 1 1 }'));
ENDSEC;

DATA;
#10=MECHANICAL_DESIGN_GEOMETRIC_PRESENTATION_REPRESENTATION('',(#13),#613);
#11=SHAPE_REPRESENTATION_RELATIONSHIP('SRR','None',#620,#12);
#12=ADVANCED_BREP_SHAPE_REPRESENTATION('',(#14),#612);
#13=STYLED_ITEM('',(#629),#14);
#14=MANIFOLD_SOLID_BREP('Body1',#373);
#15=CYLINDRICAL_SURFACE('',#403,1.45);
#16=CYLINDRICAL_SURFACE('',#405,1.45);
#17=CYLINDRICAL_SURFACE('',#407,1.45);
#18=CYLINDRICAL_SURFACE('',#409,1.45);
#19=FACE_BOUND('',#62,.T.);
#20=FACE_BOUND('',#63,.T.);
#21=FACE_BOUND('',#64,.T.);
#22=FACE_BOUND('',#65,.T.);
#23=FACE_BOUND('',#71,.T.);
#24=FACE_BOUND('',#79,.T.);
#25=FACE_BOUND('',#80,.T.);
#26=FACE_BOUND('',#81,.T.);
#27=FACE_BOUND('',#82,.T.);
#28=CIRCLE('',#394,1.45);
#29=CIRCLE('',#395,1.45);
#30=CIRCLE('',#396,1.45);
#31=CIRCLE('',#397,1.45);
#32=CIRCLE('',#404,1.45);
#33=CIRCLE('',#406,1.45);
#34=CIRCLE('',#408,1.45);
#35=CIRCLE('',#410,1.45);
#36=FACE_OUTER_BOUND('',#55,.T.);
#37=FACE_OUTER_BOUND('',#56,.T.);
#38=FACE_OUTER_BOUND('',#57,.T.);
#39=FACE_OUTER_BOUND('',#58,.T.);
#40=FACE_OUTER_BOUND('',#59,.T.);
#41=FACE_OUTER_BOUND('',#60,.T.);
#42=FACE_OUTER_BOUND('',#61,.T.);
#43=FACE_OUTER_BOUND('',#66,.T.);
#44=FACE_OUTER_BOUND('',#67,.T.);
#45=FACE_OUTER_BOUND('',#68,.T.);
#46=FACE_OUTER_BOUND('',#69,.T.);
#47=FACE_OUTER_BOUND('',#70,.T.);
#48=FACE_OUTER_BOUND('',#72,.T.);
#49=FACE_OUTER_BOUND('',#73,.T.);
#50=FACE_OUTER_BOUND('',#74,.T.);
#51=FACE_OUTER_BOUND('',#75,.T.);
#52=FACE_OUTER_BOUND('',#76,.T.);
#53=FACE_OUTER_BOUND('',#77,.T.);
#54=FACE_OUTER_BOUND('',#78,.T.);
#55=EDGE_LOOP('',(#243,#244,#245,#246));
#56=EDGE_LOOP('',(#247,#248,#249,#250));
#57=EDGE_LOOP('',(#251,#252,#253,#254));
#58=EDGE_LOOP('',(#255,#256,#257,#258));
#59=EDGE_LOOP('',(#259,#260,#261,#262));
#60=EDGE_LOOP('',(#263,#264,#265,#266,#267,#268,#269,#270));
#61=EDGE_LOOP('',(#271,#272,#273,#274,#275,#276,#277,#278));
#62=EDGE_LOOP('',(#279));
#63=EDGE_LOOP('',(#280));
#64=EDGE_LOOP('',(#281));
#65=EDGE_LOOP('',(#282));
#66=EDGE_LOOP('',(#283,#284,#285,#286));
#67=EDGE_LOOP('',(#287,#288,#289,#290));
#68=EDGE_LOOP('',(#291,#292,#293,#294));
#69=EDGE_LOOP('',(#295,#296,#297,#298));
#70=EDGE_LOOP('',(#299,#300,#301,#302));
#71=EDGE_LOOP('',(#303,#304,#305,#306));
#72=EDGE_LOOP('',(#307,#308,#309,#310));
#73=EDGE_LOOP('',(#311,#312,#313,#314));
#74=EDGE_LOOP('',(#315,#316,#317,#318));
#75=EDGE_LOOP('',(#319,#320,#321,#322));
#76=EDGE_LOOP('',(#323,#324,#325,#326));
#77=EDGE_LOOP('',(#327,#328,#329,#330));
#78=EDGE_LOOP('',(#331,#332,#333,#334));
#79=EDGE_LOOP('',(#335));
#80=EDGE_LOOP('',(#336));
#81=EDGE_LOOP('',(#337));
#82=EDGE_LOOP('',(#338));
#83=LINE('',#514,#123);
#84=LINE('',#516,#124);
#85=LINE('',#518,#125);
#86=LINE('',#519,#126);
#87=LINE('',#522,#127);
#88=LINE('',#524,#128);
#89=LINE('',#525,#129);
#90=LINE('',#528,#130);
#91=LINE('',#530,#131);
#92=LINE('',#531,#132);
#93=LINE('',#533,#133);
#94=LINE('',#534,#134);
#95=LINE('',#539,#135);
#96=LINE('',#541,#136);
#97=LINE('',#543,#137);
#98=LINE('',#545,#138);
#99=LINE('',#547,#139);
#100=LINE('',#549,#140);
#101=LINE('',#551,#141);
#102=LINE('',#552,#142);
#103=LINE('',#555,#143);
#104=LINE('',#557,#144);
#105=LINE('',#558,#145);
#106=LINE('',#560,#146);
#107=LINE('',#562,#147);
#108=LINE('',#563,#148);
#109=LINE('',#574,#149);
#110=LINE('',#575,#150);
#111=LINE('',#578,#151);
#112=LINE('',#579,#152);
#113=LINE('',#582,#153);
#114=LINE('',#583,#154);
#115=LINE('',#585,#155);
#116=LINE('',#589,#156);
#117=LINE('',#593,#157);
#118=LINE('',#597,#158);
#119=LINE('',#601,#159);
#120=LINE('',#605,#160);
#121=LINE('',#606,#161);
#122=LINE('',#608,#162);
#123=VECTOR('',#418,10.);
#124=VECTOR('',#419,10.);
#125=VECTOR('',#420,10.);
#126=VECTOR('',#421,10.);
#127=VECTOR('',#424,10.);
#128=VECTOR('',#425,10.);
#129=VECTOR('',#426,10.);
#130=VECTOR('',#429,10.);
#131=VECTOR('',#430,10.);
#132=VECTOR('',#431,10.);
#133=VECTOR('',#434,10.);
#134=VECTOR('',#435,10.);
#135=VECTOR('',#440,10.);
#136=VECTOR('',#441,10.);
#137=VECTOR('',#442,10.);
#138=VECTOR('',#443,10.);
#139=VECTOR('',#444,10.);
#140=VECTOR('',#445,10.);
#141=VECTOR('',#446,10.);
#142=VECTOR('',#447,10.);
#143=VECTOR('',#450,10.);
#144=VECTOR('',#451,10.);
#145=VECTOR('',#452,10.);
#146=VECTOR('',#453,10.);
#147=VECTOR('',#454,10.);
#148=VECTOR('',#455,10.);
#149=VECTOR('',#466,10.);
#150=VECTOR('',#467,10.);
#151=VECTOR('',#470,10.);
#152=VECTOR('',#471,10.);
#153=VECTOR('',#474,10.);
#154=VECTOR('',#475,10.);
#155=VECTOR('',#478,10.);
#156=VECTOR('',#483,1.45);
#157=VECTOR('',#488,1.45);
#158=VECTOR('',#493,1.45);
#159=VECTOR('',#498,1.45);
#160=VECTOR('',#503,10.);
#161=VECTOR('',#504,10.);
#162=VECTOR('',#507,10.);
#163=VERTEX_POINT('',#512);
#164=VERTEX_POINT('',#513);
#165=VERTEX_POINT('',#515);
#166=VERTEX_POINT('',#517);
#167=VERTEX_POINT('',#521);
#168=VERTEX_POINT('',#523);
#169=VERTEX_POINT('',#527);
#170=VERTEX_POINT('',#529);
#171=VERTEX_POINT('',#537);
#172=VERTEX_POINT('',#538);
#173=VERTEX_POINT('',#540);
#174=VERTEX_POINT('',#542);
#175=VERTEX_POINT('',#544);
#176=VERTEX_POINT('',#546);
#177=VERTEX_POINT('',#548);
#178=VERTEX_POINT('',#550);
#179=VERTEX_POINT('',#554);
#180=VERTEX_POINT('',#556);
#181=VERTEX_POINT('',#559);
#182=VERTEX_POINT('',#561);
#183=VERTEX_POINT('',#564);
#184=VERTEX_POINT('',#566);
#185=VERTEX_POINT('',#568);
#186=VERTEX_POINT('',#570);
#187=VERTEX_POINT('',#573);
#188=VERTEX_POINT('',#577);
#189=VERTEX_POINT('',#581);
#190=VERTEX_POINT('',#588);
#191=VERTEX_POINT('',#592);
#192=VERTEX_POINT('',#596);
#193=VERTEX_POINT('',#600);
#194=VERTEX_POINT('',#604);
#195=EDGE_CURVE('',#163,#164,#83,.T.);
#196=EDGE_CURVE('',#163,#165,#84,.T.);
#197=EDGE_CURVE('',#166,#165,#85,.T.);
#198=EDGE_CURVE('',#164,#166,#86,.T.);
#199=EDGE_CURVE('',#164,#167,#87,.T.);
#200=EDGE_CURVE('',#168,#166,#88,.T.);
#201=EDGE_CURVE('',#167,#168,#89,.T.);
#202=EDGE_CURVE('',#167,#169,#90,.T.);
#203=EDGE_CURVE('',#170,#168,#91,.T.);
#204=EDGE_CURVE('',#169,#170,#92,.T.);
#205=EDGE_CURVE('',#169,#163,#93,.T.);
#206=EDGE_CURVE('',#165,#170,#94,.T.);
#207=EDGE_CURVE('',#171,#172,#95,.T.);
#208=EDGE_CURVE('',#172,#173,#96,.T.);
#209=EDGE_CURVE('',#174,#173,#97,.T.);
#210=EDGE_CURVE('',#174,#175,#98,.T.);
#211=EDGE_CURVE('',#175,#176,#99,.T.);
#212=EDGE_CURVE('',#176,#177,#100,.T.);
#213=EDGE_CURVE('',#177,#178,#101,.T.);
#214=EDGE_CURVE('',#178,#171,#102,.T.);
#215=EDGE_CURVE('',#172,#179,#103,.T.);
#216=EDGE_CURVE('',#180,#179,#104,.T.);
#217=EDGE_CURVE('',#177,#180,#105,.T.);
#218=EDGE_CURVE('',#181,#176,#106,.T.);
#219=EDGE_CURVE('',#182,#181,#107,.T.);
#220=EDGE_CURVE('',#173,#182,#108,.T.);
#221=EDGE_CURVE('',#183,#183,#28,.T.);
#222=EDGE_CURVE('',#184,#184,#29,.T.);
#223=EDGE_CURVE('',#185,#185,#30,.T.);
#224=EDGE_CURVE('',#186,#186,#31,.T.);
#225=EDGE_CURVE('',#180,#187,#109,.T.);
#226=EDGE_CURVE('',#178,#187,#110,.T.);
#227=EDGE_CURVE('',#179,#188,#111,.T.);
#228=EDGE_CURVE('',#188,#187,#112,.T.);
#229=EDGE_CURVE('',#175,#189,#113,.T.);
#230=EDGE_CURVE('',#189,#181,#114,.T.);
#231=EDGE_CURVE('',#171,#188,#115,.T.);
#232=EDGE_CURVE('',#186,#190,#116,.T.);
#233=EDGE_CURVE('',#190,#190,#32,.T.);
#234=EDGE_CURVE('',#185,#191,#117,.T.);
#235=EDGE_CURVE('',#191,#191,#33,.T.);
#236=EDGE_CURVE('',#184,#192,#118,.T.);
#237=EDGE_CURVE('',#192,#192,#34,.T.);
#238=EDGE_CURVE('',#183,#193,#119,.T.);
#239=EDGE_CURVE('',#193,#193,#35,.T.);
#240=EDGE_CURVE('',#194,#182,#120,.T.);
#241=EDGE_CURVE('',#194,#174,#121,.T.);
#242=EDGE_CURVE('',#189,#194,#122,.T.);
#243=ORIENTED_EDGE('',*,*,#195,.F.);
#244=ORIENTED_EDGE('',*,*,#196,.T.);
#245=ORIENTED_EDGE('',*,*,#197,.F.);
#246=ORIENTED_EDGE('',*,*,#198,.F.);
#247=ORIENTED_EDGE('',*,*,#199,.F.);
#248=ORIENTED_EDGE('',*,*,#198,.T.);
#249=ORIENTED_EDGE('',*,*,#200,.F.);
#250=ORIENTED_EDGE('',*,*,#201,.F.);
#251=ORIENTED_EDGE('',*,*,#202,.F.);
#252=ORIENTED_EDGE('',*,*,#201,.T.);
#253=ORIENTED_EDGE('',*,*,#203,.F.);
#254=ORIENTED_EDGE('',*,*,#204,.F.);
#255=ORIENTED_EDGE('',*,*,#205,.F.);
#256=ORIENTED_EDGE('',*,*,#204,.T.);
#257=ORIENTED_EDGE('',*,*,#206,.F.);
#258=ORIENTED_EDGE('',*,*,#196,.F.);
#259=ORIENTED_EDGE('',*,*,#206,.T.);
#260=ORIENTED_EDGE('',*,*,#203,.T.);
#261=ORIENTED_EDGE('',*,*,#200,.T.);
#262=ORIENTED_EDGE('',*,*,#197,.T.);
#263=ORIENTED_EDGE('',*,*,#207,.T.);
#264=ORIENTED_EDGE('',*,*,#208,.T.);
#265=ORIENTED_EDGE('',*,*,#209,.F.);
#266=ORIENTED_EDGE('',*,*,#210,.T.);
#267=ORIENTED_EDGE('',*,*,#211,.T.);
#268=ORIENTED_EDGE('',*,*,#212,.T.);
#269=ORIENTED_EDGE('',*,*,#213,.T.);
#270=ORIENTED_EDGE('',*,*,#214,.T.);
#271=ORIENTED_EDGE('',*,*,#215,.T.);
#272=ORIENTED_EDGE('',*,*,#216,.F.);
#273=ORIENTED_EDGE('',*,*,#217,.F.);
#274=ORIENTED_EDGE('',*,*,#212,.F.);
#275=ORIENTED_EDGE('',*,*,#218,.F.);
#276=ORIENTED_EDGE('',*,*,#219,.F.);
#277=ORIENTED_EDGE('',*,*,#220,.F.);
#278=ORIENTED_EDGE('',*,*,#208,.F.);
#279=ORIENTED_EDGE('',*,*,#221,.F.);
#280=ORIENTED_EDGE('',*,*,#222,.F.);
#281=ORIENTED_EDGE('',*,*,#223,.F.);
#282=ORIENTED_EDGE('',*,*,#224,.F.);
#283=ORIENTED_EDGE('',*,*,#217,.T.);
#284=ORIENTED_EDGE('',*,*,#225,.T.);
#285=ORIENTED_EDGE('',*,*,#226,.F.);
#286=ORIENTED_EDGE('',*,*,#213,.F.);
#287=ORIENTED_EDGE('',*,*,#216,.T.);
#288=ORIENTED_EDGE('',*,*,#227,.T.);
#289=ORIENTED_EDGE('',*,*,#228,.T.);
#290=ORIENTED_EDGE('',*,*,#225,.F.);
#291=ORIENTED_EDGE('',*,*,#218,.T.);
#292=ORIENTED_EDGE('',*,*,#211,.F.);
#293=ORIENTED_EDGE('',*,*,#229,.T.);
#294=ORIENTED_EDGE('',*,*,#230,.T.);
#295=ORIENTED_EDGE('',*,*,#215,.F.);
#296=ORIENTED_EDGE('',*,*,#207,.F.);
#297=ORIENTED_EDGE('',*,*,#231,.T.);
#298=ORIENTED_EDGE('',*,*,#227,.F.);
#299=ORIENTED_EDGE('',*,*,#226,.T.);
#300=ORIENTED_EDGE('',*,*,#228,.F.);
#301=ORIENTED_EDGE('',*,*,#231,.F.);
#302=ORIENTED_EDGE('',*,*,#214,.F.);
#303=ORIENTED_EDGE('',*,*,#195,.T.);
#304=ORIENTED_EDGE('',*,*,#199,.T.);
#305=ORIENTED_EDGE('',*,*,#202,.T.);
#306=ORIENTED_EDGE('',*,*,#205,.T.);
#307=ORIENTED_EDGE('',*,*,#224,.T.);
#308=ORIENTED_EDGE('',*,*,#232,.T.);
#309=ORIENTED_EDGE('',*,*,#233,.T.);
#310=ORIENTED_EDGE('',*,*,#232,.F.);
#311=ORIENTED_EDGE('',*,*,#223,.T.);
#312=ORIENTED_EDGE('',*,*,#234,.T.);
#313=ORIENTED_EDGE('',*,*,#235,.T.);
#314=ORIENTED_EDGE('',*,*,#234,.F.);
#315=ORIENTED_EDGE('',*,*,#222,.T.);
#316=ORIENTED_EDGE('',*,*,#236,.T.);
#317=ORIENTED_EDGE('',*,*,#237,.T.);
#318=ORIENTED_EDGE('',*,*,#236,.F.);
#319=ORIENTED_EDGE('',*,*,#221,.T.);
#320=ORIENTED_EDGE('',*,*,#238,.T.);
#321=ORIENTED_EDGE('',*,*,#239,.T.);
#322=ORIENTED_EDGE('',*,*,#238,.F.);
#323=ORIENTED_EDGE('',*,*,#220,.T.);
#324=ORIENTED_EDGE('',*,*,#240,.F.);
#325=ORIENTED_EDGE('',*,*,#241,.T.);
#326=ORIENTED_EDGE('',*,*,#209,.T.);
#327=ORIENTED_EDGE('',*,*,#219,.T.);
#328=ORIENTED_EDGE('',*,*,#230,.F.);
#329=ORIENTED_EDGE('',*,*,#242,.T.);
#330=ORIENTED_EDGE('',*,*,#240,.T.);
#331=ORIENTED_EDGE('',*,*,#210,.F.);
#332=ORIENTED_EDGE('',*,*,#241,.F.);
#333=ORIENTED_EDGE('',*,*,#242,.F.);
#334=ORIENTED_EDGE('',*,*,#229,.F.);
#335=ORIENTED_EDGE('',*,*,#239,.F.);
#336=ORIENTED_EDGE('',*,*,#237,.F.);
#337=ORIENTED_EDGE('',*,*,#235,.F.);
#338=ORIENTED_EDGE('',*,*,#233,.F.);
#339=PLANE('',#387);
#340=PLANE('',#388);
#341=PLANE('',#389);
#342=PLANE('',#390);
#343=PLANE('',#391);
#344=PLANE('',#392);
#345=PLANE('',#393);
#346=PLANE('',#398);
#347=PLANE('',#399);
#348=PLANE('',#400);
#349=PLANE('',#401);
#350=PLANE('',#402);
#351=PLANE('',#411);
#352=PLANE('',#412);
#353=PLANE('',#413);
#354=ADVANCED_FACE('',(#36),#339,.T.);
#355=ADVANCED_FACE('',(#37),#340,.T.);
#356=ADVANCED_FACE('',(#38),#341,.T.);
#357=ADVANCED_FACE('',(#39),#342,.T.);
#358=ADVANCED_FACE('',(#40),#343,.T.);
#359=ADVANCED_FACE('',(#41),#344,.T.);
#360=ADVANCED_FACE('',(#42,#19,#20,#21,#22),#345,.T.);
#361=ADVANCED_FACE('',(#43),#346,.F.);
#362=ADVANCED_FACE('',(#44),#347,.F.);
#363=ADVANCED_FACE('',(#45),#348,.T.);
#364=ADVANCED_FACE('',(#46),#349,.F.);
#365=ADVANCED_FACE('',(#47,#23),#350,.F.);
#366=ADVANCED_FACE('',(#48),#15,.F.);
#367=ADVANCED_FACE('',(#49),#16,.F.);
#368=ADVANCED_FACE('',(#50),#17,.F.);
#369=ADVANCED_FACE('',(#51),#18,.F.);
#370=ADVANCED_FACE('',(#52),#351,.T.);
#371=ADVANCED_FACE('',(#53),#352,.T.);
#372=ADVANCED_FACE('',(#54,#24,#25,#26,#27),#353,.F.);
#373=CLOSED_SHELL('',(#354,#355,#356,#357,#358,#359,#360,#361,#362,#363,
#364,#365,#366,#367,#368,#369,#370,#371,#372));
#374=DERIVED_UNIT_ELEMENT(#376,1.);
#375=DERIVED_UNIT_ELEMENT(#615,-3.);
#376=(
MASS_UNIT()
NAMED_UNIT(*)
SI_UNIT(.KILO.,.GRAM.)
);
#377=DERIVED_UNIT((#374,#375));
#378=MEASURE_REPRESENTATION_ITEM('density measure',
POSITIVE_RATIO_MEASURE(7850.),#377);
#379=PROPERTY_DEFINITION_REPRESENTATION(#384,#381);
#380=PROPERTY_DEFINITION_REPRESENTATION(#385,#382);
#381=REPRESENTATION('material name',(#383),#612);
#382=REPRESENTATION('density',(#378),#612);
#383=DESCRIPTIVE_REPRESENTATION_ITEM('Steel','Steel');
#384=PROPERTY_DEFINITION('material property','material name',#622);
#385=PROPERTY_DEFINITION('material property','density of part',#622);
#386=AXIS2_PLACEMENT_3D('',#510,#414,#415);
#387=AXIS2_PLACEMENT_3D('',#511,#416,#417);
#388=AXIS2_PLACEMENT_3D('',#520,#422,#423);
#389=AXIS2_PLACEMENT_3D('',#526,#427,#428);
#390=AXIS2_PLACEMENT_3D('',#532,#432,#433);
#391=AXIS2_PLACEMENT_3D('',#535,#436,#437);
#392=AXIS2_PLACEMENT_3D('',#536,#438,#439);
#393=AXIS2_PLACEMENT_3D('',#553,#448,#449);
#394=AXIS2_PLACEMENT_3D('',#565,#456,#457);
#395=AXIS2_PLACEMENT_3D('',#567,#458,#459);
#396=AXIS2_PLACEMENT_3D('',#569,#460,#461);
#397=AXIS2_PLACEMENT_3D('',#571,#462,#463);
#398=AXIS2_PLACEMENT_3D('',#572,#464,#465);
#399=AXIS2_PLACEMENT_3D('',#576,#468,#469);
#400=AXIS2_PLACEMENT_3D('',#580,#472,#473);
#401=AXIS2_PLACEMENT_3D('',#584,#476,#477);
#402=AXIS2_PLACEMENT_3D('',#586,#479,#480);
#403=AXIS2_PLACEMENT_3D('',#587,#481,#482);
#404=AXIS2_PLACEMENT_3D('',#590,#484,#485);
#405=AXIS2_PLACEMENT_3D('',#591,#486,#487);
#406=AXIS2_PLACEMENT_3D('',#594,#489,#490);
#407=AXIS2_PLACEMENT_3D('',#595,#491,#492);
#408=AXIS2_PLACEMENT_3D('',#598,#494,#495);
#409=AXIS2_PLACEMENT_3D('',#599,#496,#497);
#410=AXIS2_PLACEMENT_3D('',#602,#499,#500);
#411=AXIS2_PLACEMENT_3D('',#603,#501,#502);
#412=AXIS2_PLACEMENT_3D('',#607,#505,#506);
#413=AXIS2_PLACEMENT_3D('',#609,#508,#509);
#414=DIRECTION('axis',(0.,0.,1.));
#415=DIRECTION('refdir',(1.,0.,0.));
#416=DIRECTION('center_axis',(1.,0.,0.));
#417=DIRECTION('ref_axis',(0.,1.,0.));
#418=DIRECTION('',(0.,-1.,0.));
#419=DIRECTION('',(0.,0.,1.));
#420=DIRECTION('',(0.,1.,0.));
#421=DIRECTION('',(0.,0.,1.));
#422=DIRECTION('center_axis',(0.,-1.,0.));
#423=DIRECTION('ref_axis',(1.,0.,0.));
#424=DIRECTION('',(-1.,0.,0.));
#425=DIRECTION('',(1.,0.,0.));
#426=DIRECTION('',(0.,0.,1.));
#427=DIRECTION('center_axis',(-1.,0.,0.));
#428=DIRECTION('ref_axis',(0.,-1.,0.));
#429=DIRECTION('',(0.,1.,0.));
#430=DIRECTION('',(0.,-1.,0.));
#431=DIRECTION('',(0.,0.,1.));
#432=DIRECTION('center_axis',(0.,1.,0.));
#433=DIRECTION('ref_axis',(-1.,0.,0.));
#434=DIRECTION('',(1.,0.,0.));
#435=DIRECTION('',(-1.,0.,0.));
#436=DIRECTION('center_axis',(0.,0.,1.));
#437=DIRECTION('ref_axis',(1.,0.,0.));
#438=DIRECTION('center_axis',(-1.,0.,0.));
#439=DIRECTION('ref_axis',(0.,-1.,0.));
#440=DIRECTION('',(0.,0.,1.));
#441=DIRECTION('',(0.,1.,0.));
#442=DIRECTION('',(0.,0.,1.));
#443=DIRECTION('',(0.,-1.,0.));
#444=DIRECTION('',(0.,0.,1.));
#445=DIRECTION('',(0.,1.,0.));
#446=DIRECTION('',(0.,0.,-1.));
#447=DIRECTION('',(0.,1.,0.));
#448=DIRECTION('center_axis',(0.,0.,1.));
#449=DIRECTION('ref_axis',(1.,0.,0.));
#450=DIRECTION('',(1.,0.,0.));
#451=DIRECTION('',(0.,1.,0.));
#452=DIRECTION('',(1.,0.,0.));
#453=DIRECTION('',(-1.,0.,0.));
#454=DIRECTION('',(-1.02632126149772E-16,-1.,0.));
#455=DIRECTION('',(1.,0.,0.));
#456=DIRECTION('center_axis',(0.,0.,1.));
#457=DIRECTION('ref_axis',(1.,0.,0.));
#458=DIRECTION('center_axis',(0.,0.,1.));
#459=DIRECTION('ref_axis',(1.,0.,0.));
#460=DIRECTION('center_axis',(0.,0.,1.));
#461=DIRECTION('ref_axis',(1.,0.,0.));
#462=DIRECTION('center_axis',(0.,0.,1.));
#463=DIRECTION('ref_axis',(1.,0.,0.));
#464=DIRECTION('center_axis',(0.,-1.,0.));
#465=DIRECTION('ref_axis',(-1.,0.,0.));
#466=DIRECTION('',(0.,0.,-1.));
#467=DIRECTION('',(1.,0.,0.));
#468=DIRECTION('center_axis',(1.,0.,0.));
#469=DIRECTION('ref_axis',(0.,-1.,0.));
#470=DIRECTION('',(0.,0.,-1.));
#471=DIRECTION('',(0.,-1.,0.));
#472=DIRECTION('center_axis',(0.,-1.,0.));
#473=DIRECTION('ref_axis',(1.,0.,0.));
#474=DIRECTION('',(1.,0.,0.));
#475=DIRECTION('',(0.,0.,1.));
#476=DIRECTION('center_axis',(0.,1.,0.));
#477=DIRECTION('ref_axis',(1.,0.,0.));
#478=DIRECTION('',(1.,0.,0.));
#479=DIRECTION('center_axis',(0.,0.,-1.));
#480=DIRECTION('ref_axis',(-1.,0.,0.));
#481=DIRECTION('center_axis',(0.,0.,1.));
#482=DIRECTION('ref_axis',(1.,0.,0.));
#483=DIRECTION('',(0.,0.,-1.));
#484=DIRECTION('center_axis',(0.,0.,-1.));
#485=DIRECTION('ref_axis',(1.,0.,0.));
#486=DIRECTION('center_axis',(0.,0.,1.));
#487=DIRECTION('ref_axis',(1.,0.,0.));
#488=DIRECTION('',(0.,0.,-1.));
#489=DIRECTION('center_axis',(0.,0.,-1.));
#490=DIRECTION('ref_axis',(1.,0.,0.));
#491=DIRECTION('center_axis',(0.,0.,1.));
#492=DIRECTION('ref_axis',(1.,0.,0.));
#493=DIRECTION('',(0.,0.,-1.));
#494=DIRECTION('center_axis',(0.,0.,-1.));
#495=DIRECTION('ref_axis',(1.,0.,0.));
#496=DIRECTION('center_axis',(0.,0.,1.));
#497=DIRECTION('ref_axis',(1.,0.,0.));
#498=DIRECTION('',(0.,0.,-1.));
#499=DIRECTION('center_axis',(0.,0.,-1.));
#500=DIRECTION('ref_axis',(1.,0.,0.));
#501=DIRECTION('center_axis',(0.,1.,0.));
#502=DIRECTION('ref_axis',(-1.,0.,0.));
#503=DIRECTION('',(0.,0.,1.));
#504=DIRECTION('',(-1.,0.,0.));
#505=DIRECTION('center_axis',(1.,-1.02632126149772E-16,0.));
#506=DIRECTION('ref_axis',(1.02632126149772E-16,1.,0.));
#507=DIRECTION('',(1.02632126149772E-16,1.,0.));
#508=DIRECTION('center_axis',(0.,0.,1.));
#509=DIRECTION('ref_axis',(1.,0.,0.));
#510=CARTESIAN_POINT('',(0.,0.,0.));
#511=CARTESIAN_POINT('Origin',(44.5267571917718,0.211766092521239,3.));
#512=CARTESIAN_POINT('',(44.5267571917718,66.3517660925212,3.));
#513=CARTESIAN_POINT('',(44.5267571917718,0.211766092521239,3.));
#514=CARTESIAN_POINT('',(44.5267571917718,16.8328191577043,3.));
#515=CARTESIAN_POINT('',(44.5267571917718,66.3517660925212,6.));
#516=CARTESIAN_POINT('',(44.5267571917718,66.3517660925212,3.));
#517=CARTESIAN_POINT('',(44.5267571917718,0.211766092521239,6.));
#518=CARTESIAN_POINT('',(44.5267571917718,66.3517660925212,6.));
#519=CARTESIAN_POINT('',(44.5267571917718,0.211766092521239,3.));
#520=CARTESIAN_POINT('Origin',(-52.3332428082282,0.211766092521242,3.));
#521=CARTESIAN_POINT('',(-52.3332428082282,0.211766092521242,3.));
#522=CARTESIAN_POINT('',(-26.8516214041141,0.211766092521244,3.));
#523=CARTESIAN_POINT('',(-52.3332428082282,0.211766092521239,6.));
#524=CARTESIAN_POINT('',(44.5267571917718,0.211766092521242,6.));
#525=CARTESIAN_POINT('',(-52.3332428082282,0.211766092521242,3.));
#526=CARTESIAN_POINT('Origin',(-52.3332428082282,66.3517660925212,3.));
#527=CARTESIAN_POINT('',(-52.3332428082282,66.3517660925212,3.));
#528=CARTESIAN_POINT('',(-52.3332428082282,49.9028191577043,3.));
#529=CARTESIAN_POINT('',(-52.3332428082282,66.3517660925212,6.));
#530=CARTESIAN_POINT('',(-52.3332428082282,0.211766092521242,6.));
#531=CARTESIAN_POINT('',(-52.3332428082282,66.3517660925212,3.));
#532=CARTESIAN_POINT('Origin',(44.5267571917718,66.3517660925212,3.));
#533=CARTESIAN_POINT('',(21.5783785958859,66.3517660925212,3.));
#534=CARTESIAN_POINT('',(-52.3332428082282,66.3517660925212,6.));
#535=CARTESIAN_POINT('Origin',(-3.90324280822819,33.2817660925212,6.));
#536=CARTESIAN_POINT('Origin',(-60.,76.7238722228874,0.));
#537=CARTESIAN_POINT('',(-60.,66.7238722228874,3.));
#538=CARTESIAN_POINT('',(-60.,66.7238722228874,8.));
#539=CARTESIAN_POINT('',(-60.,66.7238722228874,3.25));
#540=CARTESIAN_POINT('',(-60.,76.7238722228874,8.));
#541=CARTESIAN_POINT('',(-60.,55.0888722228874,8.));
#542=CARTESIAN_POINT('',(-60.,76.7238722228874,0.));
#543=CARTESIAN_POINT('',(-60.,76.7238722228874,0.));
#544=CARTESIAN_POINT('',(-60.,-9.81612777711262,0.));
#545=CARTESIAN_POINT('',(-60.,76.7238722228874,0.));
#546=CARTESIAN_POINT('',(-60.,-9.81612777711262,8.));
#547=CARTESIAN_POINT('',(-60.,-9.81612777711262,0.));
#548=CARTESIAN_POINT('',(-60.,0.183872222887382,8.));
#549=CARTESIAN_POINT('',(-60.,55.0888722228874,8.));
#550=CARTESIAN_POINT('',(-60.,0.183872222887382,3.));
#551=CARTESIAN_POINT('',(-60.,0.183872222887382,3.25));
#552=CARTESIAN_POINT('',(-60.,38.4538722228874,3.));
#553=CARTESIAN_POINT('Origin',(-1.37,33.4538722228874,8.));
#554=CARTESIAN_POINT('',(47.26,66.7238722228874,8.));
#555=CARTESIAN_POINT('',(-30.685,66.7238722228874,8.));
#556=CARTESIAN_POINT('',(47.26,0.183872222887382,8.));
#557=CARTESIAN_POINT('',(47.26,50.0888722228874,8.));
#558=CARTESIAN_POINT('',(22.945,0.183872222887382,8.));
#559=CARTESIAN_POINT('',(57.26,-9.81612777711263,8.));
#560=CARTESIAN_POINT('',(-30.685,-9.81612777711263,8.));
#561=CARTESIAN_POINT('',(57.26,76.7238722228874,8.));
#562=CARTESIAN_POINT('',(57.26,11.8188722228874,8.));
#563=CARTESIAN_POINT('',(27.945,76.7238722228874,8.));
#564=CARTESIAN_POINT('',(50.8104562324253,-4.81601419042688,8.));
#565=CARTESIAN_POINT('Origin',(52.2604562324253,-4.81601419042688,8.));
#566=CARTESIAN_POINT('',(-56.4495437675746,-4.81601419042688,8.));
#567=CARTESIAN_POINT('Origin',(-54.9995437675747,-4.81601419042688,8.));
#568=CARTESIAN_POINT('',(-56.4495437675746,71.7239858095731,8.));
#569=CARTESIAN_POINT('Origin',(-54.9995437675747,71.7239858095731,8.));
#570=CARTESIAN_POINT('',(50.8104562324253,71.7239858095731,8.));
#571=CARTESIAN_POINT('Origin',(52.2604562324253,71.7239858095731,8.));
#572=CARTESIAN_POINT('Origin',(47.26,0.183872222887382,13.));
#573=CARTESIAN_POINT('',(47.26,0.183872222887382,3.));
#574=CARTESIAN_POINT('',(47.26,0.183872222887382,13.));
#575=CARTESIAN_POINT('',(-60.,0.183872222887382,3.));
#576=CARTESIAN_POINT('Origin',(47.26,66.7238722228874,13.));
#577=CARTESIAN_POINT('',(47.26,66.7238722228874,3.));
#578=CARTESIAN_POINT('',(47.26,66.7238722228874,13.));
#579=CARTESIAN_POINT('',(47.26,66.7238722228874,3.));
#580=CARTESIAN_POINT('Origin',(-60.,-9.81612777711262,0.));
#581=CARTESIAN_POINT('',(57.26,-9.81612777711262,0.));
#582=CARTESIAN_POINT('',(-60.,-9.81612777711262,0.));
#583=CARTESIAN_POINT('',(57.26,-9.81612777711262,0.));
#584=CARTESIAN_POINT('Origin',(-50.,66.7238722228874,13.));
#585=CARTESIAN_POINT('',(-50.,66.7238722228874,3.));
#586=CARTESIAN_POINT('Origin',(-1.37,33.4538722228874,3.));
#587=CARTESIAN_POINT('Origin',(52.2604562324253,71.7239858095731,0.));
#588=CARTESIAN_POINT('',(50.8104562324253,71.7239858095731,0.));
#589=CARTESIAN_POINT('',(50.8104562324253,71.7239858095731,0.));
#590=CARTESIAN_POINT('Origin',(52.2604562324253,71.7239858095731,0.));
#591=CARTESIAN_POINT('Origin',(-54.9995437675747,71.7239858095731,0.));
#592=CARTESIAN_POINT('',(-56.4495437675747,71.7239858095731,0.));
#593=CARTESIAN_POINT('',(-56.4495437675747,71.7239858095731,0.));
#594=CARTESIAN_POINT('Origin',(-54.9995437675747,71.7239858095731,0.));
#595=CARTESIAN_POINT('Origin',(-54.9995437675747,-4.81601419042688,0.));
#596=CARTESIAN_POINT('',(-56.4495437675747,-4.81601419042688,0.));
#597=CARTESIAN_POINT('',(-56.4495437675747,-4.81601419042688,0.));
#598=CARTESIAN_POINT('Origin',(-54.9995437675747,-4.81601419042688,0.));
#599=CARTESIAN_POINT('Origin',(52.2604562324253,-4.81601419042688,0.));
#600=CARTESIAN_POINT('',(50.8104562324253,-4.81601419042688,0.));
#601=CARTESIAN_POINT('',(50.8104562324253,-4.81601419042688,0.));
#602=CARTESIAN_POINT('Origin',(52.2604562324253,-4.81601419042688,0.));
#603=CARTESIAN_POINT('Origin',(57.26,76.7238722228874,0.));
#604=CARTESIAN_POINT('',(57.26,76.7238722228874,0.));
#605=CARTESIAN_POINT('',(57.26,76.7238722228874,0.));
#606=CARTESIAN_POINT('',(57.26,76.7238722228874,0.));
#607=CARTESIAN_POINT('Origin',(57.26,-9.81612777711262,0.));
#608=CARTESIAN_POINT('',(57.26,-9.81612777711262,0.));
#609=CARTESIAN_POINT('Origin',(-1.37,33.4538722228874,0.));
#610=UNCERTAINTY_MEASURE_WITH_UNIT(LENGTH_MEASURE(0.01),#614,
'DISTANCE_ACCURACY_VALUE',
'Maximum model space distance between geometric entities at asserted c
onnectivities');
#611=UNCERTAINTY_MEASURE_WITH_UNIT(LENGTH_MEASURE(0.01),#614,
'DISTANCE_ACCURACY_VALUE',
'Maximum model space distance between geometric entities at asserted c
onnectivities');
#612=(
GEOMETRIC_REPRESENTATION_CONTEXT(3)
GLOBAL_UNCERTAINTY_ASSIGNED_CONTEXT((#610))
GLOBAL_UNIT_ASSIGNED_CONTEXT((#614,#616,#617))
REPRESENTATION_CONTEXT('','3D')
);
#613=(
GEOMETRIC_REPRESENTATION_CONTEXT(3)
GLOBAL_UNCERTAINTY_ASSIGNED_CONTEXT((#611))
GLOBAL_UNIT_ASSIGNED_CONTEXT((#614,#616,#617))
REPRESENTATION_CONTEXT('','3D')
);
#614=(
LENGTH_UNIT()
NAMED_UNIT(*)
SI_UNIT(.MILLI.,.METRE.)
);
#615=(
LENGTH_UNIT()
NAMED_UNIT(*)
SI_UNIT($,.METRE.)
);
#616=(
NAMED_UNIT(*)
PLANE_ANGLE_UNIT()
SI_UNIT($,.RADIAN.)
);
#617=(
NAMED_UNIT(*)
SI_UNIT($,.STERADIAN.)
SOLID_ANGLE_UNIT()
);
#618=SHAPE_DEFINITION_REPRESENTATION(#619,#620);
#619=PRODUCT_DEFINITION_SHAPE('',$,#622);
#620=SHAPE_REPRESENTATION('',(#386),#612);
#621=PRODUCT_DEFINITION_CONTEXT('part definition',#626,'design');
#622=PRODUCT_DEFINITION('hackpad_new','hackpad_new v6',#623,#621);
#623=PRODUCT_DEFINITION_FORMATION('',$,#628);
#624=PRODUCT_RELATED_PRODUCT_CATEGORY('hackpad_new v6','hackpad_new v6',
(#628));
#625=APPLICATION_PROTOCOL_DEFINITION('international standard',
'automotive_design',2009,#626);
#626=APPLICATION_CONTEXT(
'Core Data for Automotive Mechanical Design Process');
#627=PRODUCT_CONTEXT('part definition',#626,'mechanical');
#628=PRODUCT('hackpad_new','hackpad_new v6',$,(#627));
#629=PRESENTATION_STYLE_ASSIGNMENT((#630));
#630=SURFACE_STYLE_USAGE(.BOTH.,#631);
#631=SURFACE_SIDE_STYLE('',(#632));
#632=SURFACE_STYLE_FILL_AREA(#633);
#633=FILL_AREA_STYLE('Steel - Satin',(#634));
#634=FILL_AREA_STYLE_COLOUR('Steel - Satin',#635);
#635=COLOUR_RGB('Steel - Satin',0.627450980392157,0.627450980392157,0.627450980392157);
ENDSEC;
END-ISO-10303-21;
